# Blender 3.1.0
# www.blender.org
mtllib ice.mtl
o Cilindro
v -0.995399 0.904186 0.057948
v -0.995399 0.904186 -0.057948
v -0.957581 0.711835 -0.057948
v -0.957581 0.711835 0.057948
v -0.882962 0.530556 -0.057948
v -0.882962 0.530556 0.057948
v -0.774413 0.367319 -0.057948
v -0.774413 0.367319 0.057948
v -0.636102 0.228396 -0.057948
v -0.636102 0.228396 0.057948
v -0.473348 0.119125 -0.057948
v -0.473348 0.119125 0.057948
v -0.292403 0.043705 -0.057948
v -0.292403 0.043705 0.057948
v -0.100220 0.005035 -0.057948
v -0.100220 0.005035 0.057948
v 0.095814 0.004601 -0.057948
v 0.095814 0.004601 0.057948
v 0.288165 0.042419 -0.057948
v 0.288165 0.042419 0.057948
v 0.469443 0.117037 -0.057948
v 0.469443 0.117037 0.057948
v 0.632680 0.225587 -0.057948
v 0.632680 0.225587 0.057948
v 0.771604 0.363898 -0.057948
v 0.771604 0.363898 0.057948
v 0.880875 0.526652 -0.057948
v 0.880875 0.526652 0.057948
v 0.956295 0.707597 -0.057948
v 0.956295 0.707597 0.057948
v 0.994965 0.899780 -0.057948
v 0.994965 0.899780 0.057948
v 0.995399 1.095814 -0.057948
v 0.995399 1.095814 0.057948
v 0.957581 1.288165 -0.057948
v 0.957581 1.288165 0.057948
v 0.882963 1.469443 -0.057948
v 0.882963 1.469443 0.057948
v 0.774413 1.632681 -0.057948
v 0.774413 1.632681 0.057948
v 0.636102 1.771604 -0.057948
v 0.636102 1.771604 0.057948
v 0.473348 1.880875 -0.057948
v 0.473348 1.880875 0.057948
v 0.292403 1.956295 -0.057948
v 0.292403 1.956295 0.057948
v 0.100220 1.994965 -0.057948
v 0.100220 1.994965 0.057948
v -0.095814 1.995399 -0.057948
v -0.095814 1.995399 0.057948
v -0.288165 1.957581 -0.057948
v -0.288165 1.957581 0.057948
v -0.469444 1.882962 -0.057948
v -0.469444 1.882962 0.057948
v -0.632680 1.774413 -0.057948
v -0.632680 1.774413 0.057948
v -0.771604 1.636102 -0.057948
v -0.771604 1.636102 0.057948
v -0.880875 1.473348 -0.057948
v -0.880875 1.473348 0.057948
v -0.956295 1.292403 -0.057948
v -0.956295 1.292403 0.057948
v -0.994965 1.100220 -0.057948
v -0.994965 1.100220 0.057948
vn -0.9812 -0.1929 -0.0000
vn -0.9247 -0.3806 -0.0000
vn -0.8327 -0.5537 -0.0000
vn -0.7087 -0.7055 -0.0000
vn -0.5574 -0.8302 -0.0000
vn -0.3847 -0.9230 -0.0000
vn -0.1973 -0.9804 -0.0000
vn -0.0022 -1.0000 -0.0000
vn 0.1929 -0.9812 -0.0000
vn 0.3806 -0.9247 -0.0000
vn 0.5537 -0.8327 -0.0000
vn 0.7055 -0.7087 -0.0000
vn 0.8302 -0.5574 -0.0000
vn 0.9230 -0.3847 -0.0000
vn 0.9804 -0.1973 -0.0000
vn 1.0000 -0.0022 -0.0000
vn 0.9812 0.1929 -0.0000
vn 0.9247 0.3806 -0.0000
vn 0.8327 0.5537 -0.0000
vn 0.7087 0.7055 -0.0000
vn 0.5574 0.8302 -0.0000
vn 0.3847 0.9230 -0.0000
vn 0.1973 0.9804 -0.0000
vn 0.0022 1.0000 -0.0000
vn -0.1929 0.9812 -0.0000
vn -0.3806 0.9247 -0.0000
vn -0.5537 0.8327 -0.0000
vn -0.7055 0.7087 -0.0000
vn -0.8302 0.5574 -0.0000
vn -0.9230 0.3847 -0.0000
vn -0.0000 -0.0000 -1.0000
vn -0.9804 0.1973 -0.0000
vn -1.0000 0.0022 -0.0000
vn -0.0000 -0.0000 1.0000
vt 0.281203 0.505948
vt 0.004585 0.435499
vt 0.200947 0.900513
vt 0.282095 0.579972
vt 0.192456 0.569210
vt 0.276120 0.947128
vt 0.190952 0.500463
vt 0.027433 0.342086
vt 0.135415 0.557141
vt 0.894393 0.539668
vt 0.357390 0.979540
vt 0.133658 0.494604
vt 0.896386 0.488476
vt 0.067251 0.255132
vt 0.889025 0.547619
vt 0.442453 0.997252
vt 0.891233 0.490409
vt 0.122257 0.177510
vt 0.858447 0.555801
vt 0.529052 1.000000
vt 0.860770 0.492176
vt 0.190282 0.111675
vt 0.796918 0.563372
vt 0.614948 0.987727
vt 0.799174 0.493517
vt 0.268855 0.059652
vt 0.702826 0.569153
vt 0.697880 0.960578
vt 0.704764 0.494122
vt 0.355270 0.023021
vt 0.582209 0.571905
vt 0.775540 0.918922
vt 0.583578 0.493734
vt 0.446650 0.002912
vt 0.449692 0.570843
vt 0.845545 0.863408
vt 0.450350 0.492288
vt 0.539990 0.000000
vt 0.324415 0.566069
vt 0.881756 0.514455
vt 0.905443 0.795036
vt 0.324396 0.489980
vt 0.880581 0.454621
vt 0.632212 0.014491
vt 0.838888 0.510736
vt 0.952749 0.715246
vt 0.837820 0.444501
vt 0.720211 0.046102
vt 0.763452 0.506890
vt 0.985021 0.626022
vt 0.762738 0.434778
vt 0.800910 0.094040
vt 0.656623 0.503409
vt 1.000000 0.529978
vt 0.656538 0.426890
vt 0.871336 0.156977
vt 0.528212 0.500873
vt 0.926768 0.248953
vt 0.995801 0.430417
vt 0.528956 0.422336
vt 0.928709 0.233028
vt 0.967937 0.334483
vt 0.971162 0.331313
vt 0.970549 0.319754
vt 0.991788 0.427563
vt 0.925718 0.237205
vt 0.994807 0.414173
vt 0.996868 0.524773
vt 0.860270 0.152960
vt 1.000000 0.512819
vt 0.982423 0.622316
vt 0.776966 0.083408
vt 0.985349 0.611840
vt 0.948509 0.716168
vt 0.679349 0.032878
vt 0.950902 0.707144
vt 0.896076 0.802259
vt 0.572204 0.004706
vt 0.897618 0.794596
vt 0.826998 0.876707
vt 0.461203 0.000810
vt 0.827398 0.870240
vt 0.744030 0.936057
vt 0.352383 0.021428
vt 0.743045 0.930558
vt 0.650691 0.977515
vt 0.251552 0.065092
vt 0.648143 0.972700
vt 0.551079 0.999144
vt 0.163751 0.128836
vt 0.546864 0.994693
vt 0.449625 1.000000
vt 0.092853 0.208590
vt 0.443726 0.995573
vt 0.350820 0.980186
vt 0.041365 0.299658
vt 0.343303 0.975449
vt 0.258939 0.940824
vt 0.010433 0.397198
vt 0.249950 0.935465
vt 0.177807 0.883946
vt 0.000000 0.496602
vt 0.167555 0.877695
vt 0.110599 0.812325
vt 0.009054 0.593766
vt 0.099343 0.804964
vt 0.059721 0.729272
vt 0.035899 0.685223
vt 0.047754 0.720644
vt 0.078410 0.768182
vt 0.026759 0.638419
vt 0.014385 0.628428
vt 0.134237 0.840481
vt 0.012476 0.543518
vt 0.399463 0.587593
vt 0.399529 0.510187
vt 0.000000 0.532129
s 1
usemtl Materiale
f 1/1/1 2/4/1 3/5/1 4/7/1
f 4/7/2 3/5/2 5/9/2 6/12/2
f 6/13/3 5/10/3 7/15/3 8/17/3
f 8/17/4 7/15/4 9/19/4 10/21/4
f 10/21/5 9/19/5 11/23/5 12/25/5
f 12/25/6 11/23/6 13/27/6 14/29/6
f 14/29/7 13/27/7 15/31/7 16/33/7
f 16/33/8 15/31/8 17/35/8 18/37/8
f 18/37/9 17/35/9 19/39/9 20/42/9
f 20/43/10 19/40/10 21/45/10 22/47/10
f 22/47/11 21/45/11 23/49/11 24/51/11
f 24/51/12 23/49/12 25/53/12 26/55/12
f 26/55/13 25/53/13 27/57/13 28/60/13
f 28/61/14 27/58/14 29/62/14 30/64/14
f 30/64/15 29/62/15 31/65/15 32/67/15
f 32/67/16 31/65/16 33/68/16 34/70/16
f 34/70/17 33/68/17 35/71/17 36/73/17
f 36/73/18 35/71/18 37/74/18 38/76/18
f 38/76/19 37/74/19 39/77/19 40/79/19
f 40/79/20 39/77/20 41/80/20 42/82/20
f 42/82/21 41/80/21 43/83/21 44/85/21
f 44/85/22 43/83/22 45/86/22 46/88/22
f 46/88/23 45/86/23 47/89/23 48/91/23
f 48/91/24 47/89/24 49/92/24 50/94/24
f 50/94/25 49/92/25 51/95/25 52/97/25
f 52/97/26 51/95/26 53/98/26 54/100/26
f 54/100/27 53/98/27 55/101/27 56/103/27
f 56/103/28 55/101/28 57/104/28 58/106/28
f 58/106/29 57/104/29 59/107/29 60/109/29
f 60/109/30 59/107/30 61/111/30 62/112/30
f 3/6/31 2/3/31 63/113/31 61/110/31 59/108/31 57/105/31 55/102/31 53/99/31 51/96/31 49/93/31 47/90/31 45/87/31 43/84/31 41/81/31 39/78/31 37/75/31 35/72/31 33/69/31 31/66/31 29/63/31 27/59/31 25/54/31 23/50/31 21/46/31 19/41/31 17/36/31 15/32/31 13/28/31 11/24/31 9/20/31 7/16/31 5/11/31
f 62/112/32 61/111/32 63/114/32 64/117/32
f 64/116/33 63/115/33 2/4/33 1/1/33
f 1/2/34 4/8/34 6/14/34 8/18/34 10/22/34 12/26/34 14/30/34 16/34/34 18/38/34 20/44/34 22/48/34 24/52/34 26/56/34 28/61/34 30/64/34 32/67/34 34/70/34 36/73/34 38/76/34 40/79/34 42/82/34 44/85/34 46/88/34 48/91/34 50/94/34 52/97/34 54/100/34 56/103/34 58/106/34 60/109/34 62/112/34 64/117/34
